# xmcd
#
# Track frame offsets:
#	150
#	8860
#	20927
#	32392
#	44337
#	62990
#	78035
#	93002
#	106892
#	123820
#	132902
#	147665
#	157777
#	173870
#	184677
#
# Disc length: 2635 seconds
#
# Revision: 0
# Processed by: cddbd v1.5.2PL0 Copyright (c) Steve Scherf et al.
# Submitted via: EZCDAudioConverter 3.1.5.1
#
DISCID=b80a490f
DTITLE=Μάνος Χατζιδάκης - Η Λαική Αγορά CD1
DYEAR=1987
DGENRE=Έντεχνο
TTITLE0=Βασίλης Λέκκας - Χασάπικο '40
TTITLE1=Έλλη Πασπαλά - (Πάει) Έφυγε Το Τρένο
TTITLE2=Γιώργος Νταλάρας - Ο Κυρ Αντώνης
TTITLE3=Έλλη Πασπαλά	 - Η Τιμωρία
TTITLE4=Ηλίας Λιούγκος	 - Μανούλα Μου
TTITLE5=Ηλίας Λιούγκος	 - Το Κυπαρισσάκι
TTITLE6=Έλλη Πασπαλά	 - Τριαντάφυλλο Στο Στήθος
TTITLE7=Βασίλης Λέκκας	 - Η Μικρή Ραλλού
TTITLE8=Γιώργος Νταλάρας	 - Αερικό
TTITLE9=Γιώργος Νταλάρας	 - Η Προδοσία (Έγινε Παρεξήγηση)
TTITLE10=Ηλίας Λιούγκος	 - Η Πίκρα Σήμερα
TTITLE11=Βασίλης Λέκκας	 - Το Τριαντάφυλλο
TTITLE12=Ηλίας Λιούγκος	 - Κάνε Τη Ζωή Δροσιά
TTITLE13=Βασίλης Λέκκας	 - Το Μεθυσμένο Καράβι (Αρθούρε Ρεμπώ)
TTITLE14=Ηλίας Λιούγκος	 - Στο Λαύριο Γίνεται Χορός
EXTD=
EXTT0=
EXTT1=
EXTT2=
EXTT3=
EXTT4=
EXTT5=
EXTT6=
EXTT7=
EXTT8=
EXTT9=
EXTT10=
EXTT11=
EXTT12=
EXTT13=
EXTT14=
PLAYORDER=
